<svg width="40" height="40" viewBox="0 0 40 40" fill="none" xmlns="http://www.w3.org/2000/svg">
<path d="M10.1099 26.225C9.6499 26.225 9.2149 26.18 8.8049 26.09C8.3949 26.01 8.0299 25.895 7.7099 25.745C7.3999 25.585 7.1549 25.395 6.9749 25.175C6.7949 24.945 6.7049 24.685 6.7049 24.395C6.7049 24.175 6.7699 23.995 6.8999 23.855C7.0299 23.715 7.1949 23.61 7.3949 23.54C7.6049 23.46 7.8149 23.42 8.0249 23.42C8.2549 23.42 8.4649 23.455 8.6549 23.525C8.8549 23.595 9.0149 23.695 9.1349 23.825C9.2549 23.955 9.3149 24.12 9.3149 24.32C9.3149 24.46 9.2849 24.59 9.2249 24.71C9.1649 24.82 9.0699 24.93 8.9399 25.04C8.7799 25.16 8.6699 25.26 8.6099 25.34C8.5599 25.41 8.5349 25.49 8.5349 25.58C8.5349 25.65 8.5949 25.725 8.7149 25.805C8.8349 25.875 9.0049 25.935 9.2249 25.985C9.4449 26.035 9.7049 26.06 10.0049 26.06C10.4149 26.06 10.7799 26.01 11.0999 25.91C11.4199 25.81 11.6699 25.66 11.8499 25.46C12.0399 25.25 12.1349 24.985 12.1349 24.665C12.1349 24.405 12.0549 24.17 11.8949 23.96C11.7449 23.75 11.4899 23.55 11.1299 23.36C10.7699 23.17 10.2749 22.97 9.6449 22.76C8.9349 22.51 8.3699 22.26 7.9499 22.01C7.5399 21.76 7.2449 21.5 7.0649 21.23C6.8949 20.95 6.8099 20.65 6.8099 20.33C6.8099 19.7 7.1199 19.2 7.7399 18.83C8.3699 18.46 9.2249 18.275 10.3049 18.275C10.8849 18.275 11.4199 18.35 11.9099 18.5C12.3999 18.65 12.7949 18.86 13.0949 19.13C13.3949 19.39 13.5449 19.705 13.5449 20.075C13.5449 20.275 13.4849 20.445 13.3649 20.585C13.2449 20.715 13.0849 20.815 12.8849 20.885C12.6949 20.955 12.4949 20.99 12.2849 20.99C12.1249 20.99 11.9649 20.97 11.8049 20.93C11.6449 20.89 11.4999 20.835 11.3699 20.765C11.2399 20.685 11.1349 20.59 11.0549 20.48C10.9749 20.36 10.9349 20.23 10.9349 20.09C10.9349 19.8 11.0849 19.55 11.3849 19.34C11.5449 19.22 11.6549 19.125 11.7149 19.055C11.7749 18.985 11.8049 18.915 11.8049 18.845C11.8049 18.795 11.7699 18.745 11.6999 18.695C11.6399 18.645 11.5449 18.605 11.4149 18.575C11.2949 18.535 11.1499 18.505 10.9799 18.485C10.8099 18.455 10.6249 18.44 10.4249 18.44C10.0149 18.44 9.6449 18.485 9.3149 18.575C8.9849 18.665 8.7199 18.8 8.5199 18.98C8.3299 19.15 8.2349 19.37 8.2349 19.64C8.2349 19.9 8.3349 20.14 8.5349 20.36C8.7349 20.57 9.0149 20.77 9.3749 20.96C9.7449 21.15 10.1849 21.335 10.6949 21.515C11.4449 21.795 12.0349 22.055 12.4649 22.295C12.9049 22.525 13.2199 22.765 13.4099 23.015C13.5999 23.265 13.6949 23.545 13.6949 23.855C13.6949 24.255 13.5949 24.6 13.3949 24.89C13.2049 25.18 12.9449 25.425 12.6149 25.625C12.2849 25.825 11.9049 25.975 11.4749 26.075C11.0449 26.175 10.5899 26.225 10.1099 26.225ZM19.0794 18.275C19.6794 18.275 20.1944 18.34 20.6244 18.47C21.0644 18.6 21.4244 18.8 21.7044 19.07C21.9844 19.34 22.1894 19.68 22.3194 20.09C22.4494 20.5 22.5144 20.98 22.5144 21.53V25.49C22.5144 25.61 22.5394 25.705 22.5894 25.775C22.6494 25.845 22.7294 25.88 22.8294 25.88C22.9294 25.88 23.0494 25.85 23.1894 25.79C23.3394 25.73 23.4894 25.65 23.6394 25.55V25.7C23.5094 25.8 23.3544 25.89 23.1744 25.97C23.0044 26.05 22.8194 26.11 22.6194 26.15C22.4294 26.2 22.2394 26.225 22.0494 26.225C21.5494 26.225 21.1494 26.095 20.8494 25.835C20.5594 25.565 20.4144 25.13 20.4144 24.53C20.4144 24.37 20.4144 24.255 20.4144 24.185C20.4144 24.105 20.4144 24.045 20.4144 24.005C20.4144 23.955 20.4144 23.9 20.4144 23.84L20.2944 23.75C20.1044 24.14 19.8794 24.49 19.6194 24.8C19.3694 25.1 19.0894 25.36 18.7794 25.58C18.4694 25.79 18.1494 25.95 17.8194 26.06C17.4894 26.17 17.1594 26.225 16.8294 26.225C16.4594 26.225 16.1244 26.16 15.8244 26.03C15.5244 25.9 15.2844 25.71 15.1044 25.46C14.9244 25.21 14.8344 24.905 14.8344 24.545C14.8344 23.705 15.3094 23.06 16.2594 22.61C17.2194 22.15 18.6044 21.92 20.4144 21.92C20.4144 21.07 20.3544 20.4 20.2344 19.91C20.1144 19.42 19.9044 19.07 19.6044 18.86C19.3144 18.65 18.8944 18.545 18.3444 18.545C18.0144 18.545 17.7194 18.58 17.4594 18.65C17.1994 18.71 16.9944 18.78 16.8444 18.86C16.6944 18.94 16.6194 19.015 16.6194 19.085C16.6194 19.135 16.6744 19.19 16.7844 19.25C16.8944 19.31 17.0844 19.39 17.3544 19.49C17.8844 19.68 18.1494 19.965 18.1494 20.345C18.1494 20.665 18.0044 20.915 17.7144 21.095C17.4244 21.265 17.0694 21.35 16.6494 21.35C16.2394 21.35 15.8894 21.265 15.5994 21.095C15.3194 20.915 15.1794 20.655 15.1794 20.315C15.1794 20.065 15.2844 19.82 15.4944 19.58C15.7044 19.34 15.9894 19.12 16.3494 18.92C16.7194 18.72 17.1394 18.565 17.6094 18.455C18.0794 18.335 18.5694 18.275 19.0794 18.275ZM20.4144 22.1C19.5744 22.1 18.8844 22.21 18.3444 22.43C17.8044 22.65 17.4044 22.935 17.1444 23.285C16.8844 23.625 16.7544 23.995 16.7544 24.395C16.7544 24.635 16.7994 24.835 16.8894 24.995C16.9794 25.145 17.0994 25.26 17.2494 25.34C17.3994 25.41 17.5744 25.445 17.7744 25.445C17.9944 25.445 18.2244 25.4 18.4644 25.31C18.7144 25.22 18.9594 25.08 19.1994 24.89C19.4394 24.7 19.6644 24.46 19.8744 24.17C20.0944 23.88 20.2744 23.53 20.4144 23.12V22.1ZM24.4145 29V28.85L25.2245 28.67V19.04H24.3395V18.875L27.3245 18.275V20.66L27.4445 20.78C27.5545 20.5 27.6895 20.215 27.8495 19.925C28.0195 19.625 28.2195 19.355 28.4495 19.115C28.6795 18.865 28.9445 18.665 29.2445 18.515C29.5445 18.355 29.8795 18.275 30.2495 18.275C30.8595 18.275 31.3895 18.44 31.8395 18.77C32.2895 19.1 32.6395 19.55 32.8895 20.12C33.1395 20.69 33.2645 21.34 33.2645 22.07C33.2645 23 33.1145 23.775 32.8145 24.395C32.5245 25.005 32.1245 25.465 31.6145 25.775C31.1145 26.075 30.5595 26.225 29.9495 26.225C29.4795 26.225 29.0595 26.145 28.6895 25.985C28.3295 25.825 28.0345 25.63 27.8045 25.4C27.5845 25.17 27.4245 24.945 27.3245 24.725V28.655L28.2095 28.85V29H24.4145ZM29.1245 25.715C29.5345 25.715 29.8845 25.57 30.1745 25.28C30.4745 24.98 30.7045 24.575 30.8645 24.065C31.0345 23.555 31.1195 22.975 31.1195 22.325C31.1195 21.585 31.0495 20.97 30.9095 20.48C30.7795 19.99 30.5895 19.625 30.3395 19.385C30.0995 19.135 29.8095 19.01 29.4695 19.01C29.2095 19.01 28.9745 19.075 28.7645 19.205C28.5545 19.335 28.3595 19.525 28.1795 19.775C28.0095 20.015 27.8545 20.3 27.7145 20.63C27.5745 20.95 27.4445 21.31 27.3245 21.71V23.42C27.3245 23.7 27.3645 23.975 27.4445 24.245C27.5345 24.515 27.6545 24.765 27.8045 24.995C27.9645 25.215 28.1545 25.39 28.3745 25.52C28.5945 25.65 28.8445 25.715 29.1245 25.715Z" fill="black"/>
</svg>
