<svg width="10" height="13" viewBox="0 0 10 13" fill="none" xmlns="http://www.w3.org/2000/svg">
<path d="M4.944 12.128C4.09067 12.128 3.27467 12 2.496 11.744C1.71733 11.4773 1.104 11.136 0.656 10.72L1.248 9.472C1.67467 9.84533 2.21867 10.1547 2.88 10.4C3.54133 10.6453 4.22933 10.768 4.944 10.768C5.59467 10.768 6.12267 10.6933 6.528 10.544C6.93333 10.3947 7.232 10.192 7.424 9.936C7.616 9.66933 7.712 9.37067 7.712 9.04C7.712 8.656 7.584 8.34667 7.328 8.112C7.08267 7.87733 6.75733 7.69067 6.352 7.552C5.95733 7.40267 5.52 7.27467 5.04 7.168C4.56 7.06133 4.07467 6.93867 3.584 6.8C3.104 6.65067 2.66133 6.464 2.256 6.24C1.86133 6.016 1.54133 5.71733 1.296 5.344C1.05067 4.96 0.928 4.46933 0.928 3.872C0.928 3.296 1.07733 2.768 1.376 2.288C1.68533 1.79733 2.15467 1.408 2.784 1.12C3.424 0.821333 4.23467 0.672 5.216 0.672C5.86667 0.672 6.512 0.757333 7.152 0.927999C7.792 1.09867 8.34667 1.344 8.816 1.664L8.288 2.944C7.808 2.624 7.30133 2.39467 6.768 2.256C6.23467 2.10667 5.71733 2.032 5.216 2.032C4.58667 2.032 4.06933 2.112 3.664 2.272C3.25867 2.432 2.96 2.64533 2.768 2.912C2.58667 3.17867 2.496 3.47733 2.496 3.808C2.496 4.20267 2.61867 4.51733 2.864 4.752C3.12 4.98667 3.44533 5.17333 3.84 5.312C4.24533 5.45067 4.688 5.57867 5.168 5.696C5.648 5.80267 6.128 5.92533 6.608 6.064C7.09867 6.20267 7.54133 6.384 7.936 6.608C8.34133 6.832 8.66667 7.13067 8.912 7.504C9.15733 7.87733 9.28 8.35733 9.28 8.944C9.28 9.50933 9.12533 10.0373 8.816 10.528C8.50667 11.008 8.02667 11.3973 7.376 11.696C6.736 11.984 5.92533 12.128 4.944 12.128Z" fill="white"/>
</svg>
